<?xml version="1.0" encoding="utf-8"?>
<!-- Generator: Adobe Illustrator 21.1.0, SVG Export Plug-In . SVG Version: 6.00 Build 0)  -->
<svg version="1.1" id="Layer_1" xmlns="http://www.w3.org/2000/svg" xmlns:xlink="http://www.w3.org/1999/xlink" x="0px" y="0px" viewBox="0 0 59 42.8" xml:space="preserve" height="35px">
<style type="text/css">
	.st0{fill:#FFFFFF;}
</style>
<g>
	<path class="st0" d="M57.6,21.4c0,6.4-1.7,11.2-5,14.4c-3.3,3.3-8.2,4.9-14.7,4.9h-9.1V2.9h10.2c6,0,10.6,1.6,13.8,4.7
		S57.6,15.4,57.6,21.4z M54.7,21.5c0-5.4-1.4-9.5-4.1-12.2c-2.8-2.7-6.8-4.1-12.1-4.1h-7v33.2h6.3C49.1,38.4,54.7,32.8,54.7,21.5z"
		/>
</g>
<g>
	<path class="st0" d="M2.6,6.7L1.5,4.3c2.9-1.4,6.2-2.1,9.9-2.1c3.6,0,6.8,0.8,9.5,2.4c2.7,1.6,4.8,3.9,6.3,6.8
		c1.5,2.9,2.2,6.3,2.2,10.2c0,6.2-1.5,11-4.6,14.4c-3.1,3.4-7.2,5.2-12.6,5.2c-3.7,0-6.9-0.4-9.4-1.3v-2.3c2.7,0.8,5.6,1.2,8.8,1.2
		c4.8,0,8.5-1.5,11-4.5c2.6-3,3.9-7.2,3.9-12.6c0-5.3-1.4-9.4-4.1-12.5c-2.7-3-6.5-4.6-11.2-4.6C8.2,4.6,5.3,5.3,2.6,6.7z"/>
</g>
</svg>
