<?xml version="1.0" encoding="utf-8"?>
<!-- Generator: Adobe Illustrator 21.1.0, SVG Export Plug-In . SVG Version: 6.00 Build 0)  -->
<svg version="1.1" id="Layer_1" xmlns="http://www.w3.org/2000/svg" xmlns:xlink="http://www.w3.org/1999/xlink" x="0px" y="0px"
	 viewBox="0 0 37 35" style="enable-background:new 0 0 37 35;" xml:space="preserve" height="35px">
<style type="text/css">
	.st0{enable-background:new    ;}
	.st1{fill:#FFFFFF;}
	.st2{fill:none;stroke:#FFFFFF;stroke-width:2;stroke-miterlimit:10;}
</style>
<g class="st0">
	<path class="st1" d="M23.3,25.8V8.7h5c1.5,0,2.8,0.3,4,1s2.1,1.6,2.7,2.9s1,2.6,1,4.2v0.9c0,1.6-0.3,3-1,4.3s-1.6,2.2-2.8,2.8
		s-2.6,1-4.1,1H23.3z M26.2,11.1v12.3h1.9c1.6,0,2.7-0.5,3.6-1.5s1.3-2.4,1.3-4.2v-0.9c0-1.9-0.4-3.3-1.2-4.2s-2-1.5-3.5-1.5H26.2z"
		/>
</g>
<g class="st0">
	<path class="st1" d="M5,20.2c0.2,1.2,0.5,2.1,1.1,2.6s1.5,0.8,2.6,0.8c1.3,0,2.2-0.5,2.9-1.5s1-2.4,1-4.2v-1.5
		c0-1.8-0.4-3.2-1.1-4.1s-1.7-1.4-3-1.4c-1.1,0-2,0.3-2.5,0.8S5.1,13.1,5,14.3H2C2.2,12.5,2.9,11,4,10s2.7-1.5,4.5-1.5
		c1.4,0,2.6,0.3,3.7,1s1.9,1.6,2.5,2.8s0.9,2.6,0.9,4.3v1.6c0,1.6-0.3,2.9-0.9,4.1s-1.4,2.1-2.4,2.7s-2.2,1-3.6,1
		c-1.9,0-3.5-0.5-4.7-1.5S2.2,22,2,20.2H5z"/>
</g>
<line class="st2" x1="19" y1="4" x2="19" y2="31"/>
</svg>
